<svg width="153" height="159" viewBox="0 0 153 159" fill="none" xmlns="http://www.w3.org/2000/svg">
<path d="M88.07 61.58C86.59 60.98 85.19 62.28 83.82 62.69C83.92 63.02 84.13 63.69 84.24 64.02C85.83 64.2 88.49 63.76 88.07 61.58Z" fill="white"/>
<path d="M100.87 61.84C100.33 65.36 100.68 69.28 98.49 72.32C97.4 74.13 95.26 74.69 93.44 75.47C80.55 80.18 69.85 89.83 62.77 101.47C64.03 101.72 66.2 101.25 65.83 103.26C64.58 107.39 62.15 111.1 60.94 115.26C62.02 115.09 63.09 114.94 64.16 114.8C64.53 120.22 62.98 125.5 62.55 130.86C62.33 133.63 61.96 136.37 61.55 139.11C61.14 141.85 61.55 144.96 59.96 147.44C68.6624 150.319 77.7968 151.672 86.96 151.44C88.245 151.483 89.518 151.18 90.6458 150.563C91.7735 149.945 92.7144 149.036 93.37 147.93C95.12 145.24 94.37 141.93 94.37 138.93C94.06 129.78 94.09 120.53 95.85 111.52C96.85 106 100.54 101.44 104.69 97.85C114.57 89.35 126.93 84.6 137.77 77.56C143.9 72.62 145.08 64.15 145.11 56.76C142.28 54.26 139.5 51.59 136.25 49.67C129.33 49.9 122.55 52.1 115.64 52.67C111.9 52.94 108.35 51.54 105.1 49.85C104.023 49.2025 102.987 48.4878 102 47.71C102.991 48.4778 104.03 49.1826 105.11 49.82C102.966 53.5303 101.529 57.6058 100.87 61.84Z" fill="white"/>
<path d="M146.92 45C145.556 45.1227 144.212 45.415 142.92 45.87C142.69 47.87 145.46 47.25 146.65 46.94C146.74 46.41 146.87 45.43 146.92 45Z" fill="white"/>
<path d="M91.8 43.58C89.99 43.71 88.19 43.88 86.38 44.05C88.19 43.88 90 43.71 91.8 43.58Z" fill="white"/>
<path d="M13.36 103.22C13.3623 104.708 12.854 106.152 11.92 107.31C12.6716 108.963 13.5335 110.563 14.5 112.1C17.7209 117.325 21.5217 122.169 25.83 126.54C27.55 128.293 29.3467 129.96 31.22 131.54C36.8397 136.35 43.0785 140.386 49.77 143.54C53.0789 145.111 56.4939 146.447 59.99 147.54C61.63 145.06 61.18 142.01 61.58 139.21C61.98 136.41 62.33 133.73 62.58 130.96C63.01 125.6 64.58 120.32 64.19 114.9C63.12 115.04 62.05 115.19 60.97 115.36C62.18 111.17 64.61 107.46 65.86 103.36C66.23 101.36 64.06 101.82 62.8 101.57C69.88 89.92 80.58 80.27 93.47 75.57C95.29 74.79 97.47 74.23 98.52 72.42C100.71 69.42 100.36 65.42 100.9 61.94C101.549 57.7154 102.972 53.647 105.1 49.94C104.02 49.2635 102.985 48.5186 102 47.71C100.736 46.7325 99.417 45.8277 98.05 45C97.5208 44.6838 96.9694 44.4064 96.4 44.17C96.11 44.06 95.83 43.95 95.54 43.86C94.648 43.5794 93.7144 43.4543 92.78 43.49C92.4446 43.4981 92.1103 43.5315 91.78 43.59C89.97 43.72 88.17 43.89 86.36 44.06C85.66 44.12 84.95 44.17 84.25 44.24C79.25 44.72 74.25 45.24 69.25 45.8L65.92 46.13C65.4008 47.4111 64.4885 48.4944 63.3143 49.224C62.1402 49.9535 60.7648 50.2916 59.3863 50.1896C58.0077 50.0876 56.6971 49.5508 55.6431 48.6564C54.5891 47.762 53.8461 46.5563 53.5211 45.2127C53.1961 43.8691 53.3059 42.4571 53.8346 41.1799C54.3633 39.9026 55.2837 38.8261 56.4632 38.1054C57.6427 37.3846 59.0206 37.0567 60.3983 37.169C61.7761 37.2812 63.0827 37.8278 64.13 38.73H64.47L65.7 38.61C66.92 38.48 68.14 38.35 69.35 38.1C69.4689 38.1093 69.5884 38.0922 69.7 38.05C69.9694 37.9394 70.2042 37.7586 70.3801 37.5265C70.556 37.2943 70.6664 37.0193 70.7 36.73C70.7595 36.4532 70.7595 36.1668 70.7 35.89C70.663 35.7697 70.6091 35.6552 70.54 35.55C70.16 34.75 69.75 33.97 69.32 33.2C68.89 32.43 68.44 31.67 67.98 30.92C67.05 29.41 66.08 27.92 65.11 26.46C64.4295 25.4208 63.6671 24.4377 62.83 23.52C60.35 20.77 57.35 18.52 54.72 15.89L53.99 15.22C52.4225 13.5209 50.6049 12.0709 48.6 10.92C48.4511 10.8749 48.2951 10.8579 48.14 10.87C47.852 10.9061 47.5879 11.0488 47.4 11.27C46.9355 11.8984 46.6519 12.6419 46.58 13.42C44.94 25.42 37.91 51.81 34.24 64.62C34.13 65.04 26.24 77.5 25.86 77.94C20.51 84.67 14.14 91 10 97.54C11.0147 98.1022 11.8611 98.925 12.4517 99.9235C13.0423 100.922 13.3559 102.06 13.36 103.22ZM89.3 59.86C93.14 61.38 91.64 67.29 88.23 68.46C84.96 70.2 80.53 67.23 81 63.54C82.28 60.51 86.26 59 89.3 59.86Z" fill="#FD922C"/>
<path d="M88.1 34.44C88.1148 34.2837 88.1148 34.1263 88.1 33.97C88.115 33.7903 88.115 33.6097 88.1 33.43C88.0361 32.7505 87.8987 32.0799 87.69 31.43C87.59 31.1 87.48 30.77 87.37 30.43L87.1 29.61C86.99 29.25 86.88 28.89 86.8 28.55C84.8 24.19 83.14 19.55 81.01 15.27C80.6567 14.55 80.2867 13.84 79.9 13.14C79.51 12.43 79.1 11.74 78.67 11.06L77.35 11.15H77.18C76.97 11.49 76.78 11.83 76.6 12.15C75.8896 13.5446 75.2554 14.9767 74.7 16.44L74.26 17.52C73.96 18.25 73.66 18.97 73.33 19.68C73.16 20.21 72.9 20.78 72.69 21.36C72.5417 21.7374 72.4344 22.1297 72.37 22.53C72.355 22.7197 72.355 22.9103 72.37 23.1C72.3955 23.5004 72.5266 23.8868 72.75 24.22C74.61 27.22 76.28 30.22 78.03 33.22C78.61 34.22 79.2 35.22 79.81 36.22C80.0909 36.3657 80.3857 36.4829 80.69 36.57C81.6099 36.8091 82.5664 36.8735 83.51 36.76C84.7829 36.5888 86.0449 36.3451 87.29 36.03C87.709 35.5902 87.9906 35.0376 88.1 34.44Z" fill="#FD922C"/>
<path d="M88.23 68.46C91.64 67.29 93.14 61.38 89.3 59.86C86.3 59.03 82.3 60.51 81 63.54C80.53 67.23 85 70.2 88.23 68.46ZM84.23 64.02C84.12 63.69 83.91 63.02 83.81 62.69C85.18 62.28 86.58 60.98 88.06 61.58C88.49 63.76 85.83 64.2 84.24 64L84.23 64.02Z" fill="#1A1A1A"/>
<path d="M152.61 49C152.43 46.74 152.68 44.23 151.28 42.28C150.556 41.3662 149.586 40.679 148.483 40.2998C147.381 39.9205 146.193 39.8651 145.06 40.14C135.94 41.88 126.73 43.14 117.62 44.88C114.802 45.4671 111.865 44.967 109.4 43.48C105.28 40.92 101.51 37.59 96.76 36.23C96.55 36.17 96.34 36.09 96.13 36.04C95.31 31.87 94.89 27.55 92.94 23.71C89.68 16.85 87.47 9.36 82.77 3.29C80.29 -0.0599983 74.86 0.340002 72.58 3.7C70.3 7.06 68.86 11.13 67.19 14.92L65.54 15.45C60.16 10.86 55.39 5.36 49.07 2C45.12 -0.209999 40.14 3.11 39.83 7.42C38.35 17.29 34.83 27.2 32.35 37.11C31.61 40.11 28.17 54.41 25.82 62.89C24.5807 63.3542 23.5126 64.1856 22.7585 65.2731C22.0043 66.3606 21.6001 67.6524 21.5999 68.9757C21.5996 70.2991 22.0033 71.5911 22.757 72.6789C23.5107 73.7667 24.5784 74.5985 25.8176 75.0632C27.0567 75.5279 28.4081 75.6032 29.6912 75.2792C30.9744 74.9552 32.128 74.2473 32.998 73.25C33.8679 72.2528 34.4128 71.0138 34.5597 69.6985C34.7066 68.3833 34.4485 67.0546 33.82 65.89V65.76C37.37 53.46 44.82 25.76 46.5 13.36C46.5719 12.5819 46.8555 11.8384 47.32 11.21C47.5079 10.9888 47.772 10.8461 48.06 10.81C48.2151 10.7979 48.3711 10.8149 48.52 10.86C50.5249 12.0109 52.3425 13.4609 53.91 15.16L54.64 15.83C57.27 18.43 60.27 20.71 62.75 23.46C63.5871 24.3777 64.3495 25.3608 65.03 26.4C66.03 27.88 66.97 29.35 67.9 30.86C68.36 31.61 68.81 32.37 69.24 33.14C69.67 33.91 70.08 34.69 70.46 35.49C70.5292 35.5952 70.583 35.7097 70.62 35.83C70.6795 36.1068 70.6795 36.3932 70.62 36.67C70.5864 36.9593 70.476 37.2343 70.3001 37.4665C70.1243 37.6986 69.8894 37.8794 69.62 37.99C69.5084 38.0322 69.3889 38.0493 69.27 38.04C68.06 38.29 66.84 38.42 65.62 38.55L64.39 38.67H64.05C63.0038 37.7707 61.6993 37.2265 60.3241 37.1156C58.949 37.0047 57.5741 37.3329 56.3973 38.0529C55.2205 38.7729 54.3024 39.8476 53.7751 41.1224C53.2478 42.3973 53.1385 43.8065 53.4628 45.1474C53.7872 46.4884 54.5285 47.6918 55.5802 48.5847C56.6318 49.4776 57.9396 50.0139 59.3154 50.1165C60.6912 50.219 62.064 49.8825 63.2365 49.1554C64.4089 48.4283 65.3204 47.348 65.84 46.07L69.17 45.74C74.17 45.22 79.17 44.66 84.17 44.18C84.87 44.11 85.58 44.06 86.28 44C88.09 43.83 89.89 43.66 91.7 43.53C92.0303 43.4715 92.3646 43.4381 92.7 43.43C93.6344 43.3943 94.568 43.5194 95.46 43.8C95.75 43.89 96.03 44 96.32 44.11C96.8894 44.3464 97.4408 44.6238 97.97 44.94C99.3658 45.7846 100.711 46.7095 102 47.71C102.991 48.4778 104.03 49.1826 105.11 49.82C108.36 51.51 111.91 52.91 115.65 52.64C122.56 52.09 129.34 49.89 136.26 49.64C139.51 51.56 142.26 54.23 145.12 56.73C145.12 64.12 143.91 72.59 137.78 77.53C126.94 84.53 114.58 89.32 104.7 97.82C100.55 101.41 96.89 105.97 95.86 111.49C94.1 120.49 94.07 129.75 94.38 138.9C94.44 141.9 95.15 145.22 93.38 147.9C92.7244 149.006 91.7835 149.915 90.6558 150.533C89.528 151.15 88.255 151.453 86.97 151.41C77.8068 151.642 68.6724 150.289 59.97 147.41C56.4739 146.317 53.0589 144.981 49.75 143.41C43.0585 140.256 36.8197 136.22 31.2 131.41C29.3267 129.823 27.53 128.157 25.81 126.41C21.5164 122.078 17.7227 117.278 14.5 112.1C13.5335 110.563 12.6716 108.963 11.92 107.31C12.7715 106.249 13.2697 104.948 13.3448 103.59C13.42 102.231 13.0684 100.883 12.3392 99.7348C11.61 98.5863 10.5398 97.6946 9.2785 97.1847C8.0172 96.6748 6.62799 96.5722 5.30547 96.8913C3.98295 97.2104 2.79339 97.9353 1.90341 98.9642C1.01343 99.9932 0.467624 101.275 0.34245 102.63C0.217277 103.984 0.519008 105.344 1.20537 106.519C1.89174 107.693 2.92835 108.624 4.17 109.18C12.0323 124.69 24.1796 137.618 39.17 146.43C43.653 149.04 48.3341 151.293 53.17 153.17C65.2368 158.007 78.2973 159.843 91.23 158.52C93.66 158.26 96.23 158.64 98.1 156.74C102.43 152.36 102.34 145.08 101.93 139.4C101.33 130.804 101.719 122.167 103.09 113.66C103.92 108.43 108.09 104.66 112.09 101.58C121.35 94.58 132.19 90.23 141.86 83.92C145.456 81.8062 148.233 78.5396 149.74 74.65C152.73 66.5 152.85 57.62 152.61 49ZM88.1 34.44C88.0155 35.0836 87.7324 35.6849 87.29 36.16C86.0449 36.4751 84.7829 36.7189 83.51 36.89C82.5664 37.0036 81.6099 36.9391 80.69 36.7C80.3857 36.6129 80.0909 36.4957 79.81 36.35C79.2 35.35 78.61 34.35 78.03 33.35C76.28 30.35 74.61 27.27 72.75 24.35C72.5266 24.0168 72.3955 23.6304 72.37 23.23C72.355 23.0403 72.355 22.8497 72.37 22.66C72.4345 22.2597 72.5417 21.8674 72.69 21.49C72.9 20.91 73.16 20.34 73.33 19.81C73.66 19.1 73.96 18.38 74.26 17.65L74.7 16.57C75.2554 15.1067 75.8896 13.6746 76.6 12.28C76.78 11.94 76.97 11.6 77.18 11.28H77.35L78.67 11.19C79.1 11.87 79.51 12.56 79.9 13.27C80.29 13.98 80.66 14.68 81.01 15.4C83.14 19.72 84.76 24.32 86.8 28.68C86.88 29.02 86.99 29.38 87.1 29.74L87.37 30.56C87.48 30.89 87.59 31.22 87.69 31.56C87.8987 32.2099 88.0361 32.8805 88.1 33.56C88.115 33.7397 88.115 33.9203 88.1 34.1C88.1078 34.2132 88.1078 34.3268 88.1 34.44ZM146.68 46.89C145.49 47.2 142.68 47.8 142.95 45.82C144.242 45.365 145.586 45.0727 146.95 44.95C146.87 45.43 146.74 46.41 146.68 46.89Z" fill="#1A1A1A"/>
</svg>
